<svg xmlns="http://www.w3.org/2000/svg" width="74.646" height="72.798" viewBox="0 0 74.646 72.798">
  <path id="Icon_simple-github" data-name="Icon simple-github" d="M37.323.446a37.325,37.325,0,0,0-11.8,72.734c1.866.351,2.55-.8,2.55-1.795,0-.886-.031-3.235-.047-6.345-10.382,2.252-12.572-5.008-12.572-5.008-1.7-4.308-4.152-5.459-4.152-5.459-3.381-2.314.261-2.267.261-2.267,3.748.261,5.717,3.844,5.717,3.844,3.328,5.707,8.737,4.059,10.87,3.1a7.957,7.957,0,0,1,2.364-4.992c-8.289-.933-17-4.143-17-18.444A14.4,14.4,0,0,1,17.352,25.8c-.42-.942-1.68-4.737.327-9.878,0,0,3.126-1,10.264,3.826a35.188,35.188,0,0,1,18.662,0c7.091-4.827,10.217-3.826,10.217-3.826a13.637,13.637,0,0,1,.373,9.878A14.458,14.458,0,0,1,61.02,35.819c0,14.338-8.724,17.5-17.029,18.413,1.306,1.12,2.519,3.409,2.519,6.9,0,5-.047,9.007-.047,10.22,0,.98.653,2.146,2.566,1.773A37.277,37.277,0,0,0,37.323.445" transform="translate(0 -0.446)"/>
</svg>
