<svg xmlns="http://www.w3.org/2000/svg" width="33.466" height="74.64" viewBox="0 0 33.466 74.64">
  <path id="Icon_simple-mongodb" data-name="Icon simple-mongodb" d="M42.775,29.6C38.847,12.309,29.582,6.627,28.587,4.454A27.945,27.945,0,0,1,26.307,0c-.006.059-.012.1-.016.152v.04h0c-.006.047-.009.078-.012.121V.361H26.27c0,.031-.006.056-.006.081V.522h-.009A.591.591,0,0,1,26.245.6V.666h-.006a.222.222,0,0,1-.006.065V.793h-.006c0,.031,0,.068-.006.1V.9c-.009.053-.019.106-.028.156v.025h-.006a.164.164,0,0,0-.009.037v.053h-.009v.068h-.016v.056h-.016v.065h-.012v.059h-.012v.053h-.019v.044H26.08v.056h-.012v.044h-.016v.04h-.009V1.7h-.012a.019.019,0,0,0,0,.012v.031h-.009a.039.039,0,0,0,0,.019v.019h-.006A.137.137,0,0,0,26,1.813c-.009.022-.022.044-.031.065v.006a.094.094,0,0,0-.016.022v.025h-.012v.025h-.016v.025h-.009v.031H25.9v.044h-.012v.012h-.012v.025h-.012v.034H25.85v.025h-.019v.034h-.012v.025H25.8v.025h-.009v.031h-.016v.025h-.012v.019h-.012v.025h-.019v.028h-.012v.019h-.016v.025h-.012v.034h-.016v.012H25.67v.025h-.019v.012h-.012v.031h-.012v.012h-.012V2.56H25.6v.019h-.009l-.006.012V2.6h-.006c0,.006-.006.006-.006.012v0h0a.05.05,0,0,1-.012.022V2.65h0a.583.583,0,0,0-.037.056v0a.14.14,0,0,0-.028.031v.006h0s-.009.006-.009.009v.009h-.006l-.009.009v0h0s-.006.006-.009.012V2.8h-.009l-.006.006v.006h-.006c0,.006-.006.006-.006.009v.009h-.012s0,.006-.006.009v.019H25.39v.012h-.012v.019h-.012v.025h-.016V2.892h-.016V2.9h-.012v.019h-.016v.025H25.29v.012h-.012v.019h-.012v.012h-.012v.025h-.019v.012h-.012v.019h-.016V3.06h-.012v.016h-.016v.031h-.006v.012h-.019v.016h-.012v.006h-.012v.012h-.016v.031H25.1V3.2h-.016V3.21h-.012v.019h-.016v.012h-.016v.012h-.012v.012h-.012V3.3H25v.016h-.019v.012h-.012v.012h-.016v.019h-.012v.012H24.93V3.39h-.012V3.4H24.9v.019h-.006v.012H24.88v.012h-.016v.012h-.012v.019h-.016v.012h-.009a.01.01,0,0,0,0,.006V3.5h-.006l-.012.012a.058.058,0,0,1-.012.009v.019H24.78v.016h-.012V3.57h-.012v.012h-.009l-.009.009V3.6h-.006l-.006.006v.009h-.006a.311.311,0,0,1-.044.05c-.006.006-.025.022-.037.031a1.138,1.138,0,0,0-.121.1.655.655,0,0,0-.068.053v0h0c-.05.04-.1.078-.152.121v0c-.075.062-.146.121-.23.193v0h-.006c-.177.146-.364.311-.578.494v0h0c-.526.46-1.151,1.051-1.85,1.766l-.047.047-.012.012c-4.23,4.376-10.894,13.494-11.6,28.229a32.238,32.238,0,0,0,.019,3.558v.028A33.885,33.885,0,0,0,14.427,53.1v0a38.954,38.954,0,0,0,2.88,4.37v0a39.8,39.8,0,0,0,7.819,7.856c1.372,3.182,1.244,8.643,1.244,8.643l2,.669s-.407-5.29.165-7.843a4.845,4.845,0,0,1,1.085-2.059A26.064,26.064,0,0,0,32.1,62.732c.056-.059.087-.112.137-.168,4.73-4.41,13.566-15.27,10.537-32.963Z" transform="translate(-9.927)"/>
</svg>
