<svg xmlns="http://www.w3.org/2000/svg" width="78.714" height="74.65" viewBox="0 0 78.714 74.65">
  <path id="Icon_simple-redux" data-name="Icon simple-redux" d="M54.556,53.028a5.458,5.458,0,0,0,4.917-5.753,5.664,5.664,0,0,0-5.6-5.405h-.2a5.608,5.608,0,0,0-5.405,5.8,5.988,5.988,0,0,0,1.62,3.782c-3.437,6.685-8.6,11.6-16.413,15.728a26.91,26.91,0,0,1-16.216,3.047c-4.52-.636-8.056-2.657-10.221-5.9A14.657,14.657,0,0,1,6.2,48.8a23.175,23.175,0,0,1,6.885-8.013,32.668,32.668,0,0,1-1.378-5.058C-2.844,46.153-1.365,60.4,3.056,67.135c3.293,4.913,10.027,8.056,17.4,8.056a25.526,25.526,0,0,0,6.045-.636A38.451,38.451,0,0,0,54.51,53.13l.046-.1ZM72.1,40.741C64.485,31.8,53.277,26.883,40.5,26.883H38.825a5.289,5.289,0,0,0-4.91-2.949h-.148a5.5,5.5,0,0,0-5.4,5.75,5.663,5.663,0,0,0,5.6,5.405h.243a5.545,5.545,0,0,0,4.913-3.441h1.82a38.059,38.059,0,0,1,21.281,6.534A26.94,26.94,0,0,1,72.839,50.962a13.57,13.57,0,0,1-.148,11.8,14.608,14.608,0,0,1-13.76,8.256A25.654,25.654,0,0,1,49.2,68.9c-1.178.977-3.146,2.6-4.572,3.585a31.554,31.554,0,0,0,12.923,3.093c9.584,0,16.705-5.4,19.411-10.614,2.945-5.9,2.7-15.823-4.818-24.325ZM21.287,54.793a5.656,5.656,0,0,0,5.6,5.405h.2A5.6,5.6,0,0,0,26.938,49h-.2a2.114,2.114,0,0,0-.738.1,36.707,36.707,0,0,1-5.156-22.209,26.678,26.678,0,0,1,5.894-15.531c2.949-3.687,8.5-5.507,12.287-5.6,10.614-.2,15.039,13.025,15.38,18.283l4.913,1.473C58.187,9.387,48.167.931,38.582.931c-8.994,0-17.3,6.537-20.641,16.121-4.569,12.779-1.571,25.063,4.031,34.893a4.347,4.347,0,0,0-.686,2.847Z" transform="translate(0 -0.932)"/>
</svg>
