<svg xmlns="http://www.w3.org/2000/svg" width="74.64" height="74.64" viewBox="0 0 74.64 74.64">
  <path id="sass" d="M37.32,0A37.32,37.32,0,1,1,0,37.32,37.322,37.322,0,0,1,37.32,0ZM29.9,49.754a9.538,9.538,0,0,1-.075,5.573l-.2.56c-.075.19-.162.373-.243.547a10.462,10.462,0,0,1-1.726,2.519c-2.171,2.36-5.2,3.256-6.5,2.5-1.4-.815-.7-4.152,1.816-6.811a25.39,25.39,0,0,1,6.593-4.693v-.009ZM60.726,15.976C59.04,9.342,48.046,7.162,37.643,10.86c-6.186,2.2-12.888,5.654-17.705,10.16-5.732,5.352-6.643,10.017-6.267,11.967C15,39.864,24.423,44.361,28.3,47.7v.019c-1.141.56-9.5,4.755-11.463,9.1-2.1,4.572.327,7.84,1.913,8.257,4.9,1.356,9.936-1.12,12.642-5.128A12.9,12.9,0,0,0,32.646,48.51a14.511,14.511,0,0,1,5.691-.323c6.534.746,7.84,4.852,7.557,6.531a4.484,4.484,0,0,1-2.1,2.936c-.466.283-.606.373-.563.563.047.28.283.28.653.233a5.175,5.175,0,0,0,3.549-4.575c.14-4.012-3.688-8.487-10.5-8.4a16.82,16.82,0,0,0-5.831.8,1.127,1.127,0,0,0-.327-.327c-4.2-4.525-11.989-7.7-11.662-13.715.093-2.193.886-7.974,14.928-14.972,11.523-5.741,20.716-4.152,22.3-.653,2.28,4.988-4.9,14.275-16.89,15.625-4.572.513-6.951-1.256-7.56-1.913-.65-.7-.743-.746-.977-.6-.373.187-.14.793,0,1.166a7.182,7.182,0,0,0,4.342,3.405c2.189.7,7.557,1.116,13.995-1.4,7.228-2.8,12.872-10.59,11.24-17.121l.227.208Z"/>
</svg>
