<svg xmlns="http://www.w3.org/2000/svg" width="170.997" height="74.64" viewBox="0 0 170.997 74.64">
  <path id="styled-components" d="M115.522,6.762l-.534,2.786c-.826,5.28-.527,6.79,1.738,8.749l2.187,1.81-2.266,10.1c-1.354,6.028-3.014,11.079-4.068,12.739a18.229,18.229,0,0,0-2.187,4.674c-.378,1.354-1.66,2.715-3.619,3.919a60.344,60.344,0,0,0-7.538,5.736,36.649,36.649,0,0,1-3.969,3.249l-2.351,1.86a9.977,9.977,0,0,0-1.347,2.928,2.072,2.072,0,0,0,.171,1.639,2.022,2.022,0,0,0,1.2.762,6.8,6.8,0,0,0,2.009.164,21.375,21.375,0,0,0,4.5-.8c.5-.135.891-.264,1.233-.378.527-.648,1.746-1.874,3.9-4,5.728-5.65,7.916-8.742,5.657-7.909-.834.3-.456-.456.976-1.966,3.021-2.943,4.752-7.388,8.372-21.332,2.864-11.008,2.864-11.165,4.973-11.165.99,0,3.79.171,3.79.171V6.762H115.522Zm27.352,22.55c-.456,0-1.211.684-1.66,1.439-.826,1.354.15,2.18,12.59,9.946,7.388,4.681,13.345,8.671,13.2,8.977-.15.221-6.184,4.147-13.416,8.671-13.124,8.137-13.2,8.215-11.991,9.875,1.51,1.959,0,2.636,17.036-7.994L171,52.311V46.355l-13.8-8.521c-7.46-4.674-13.943-8.443-14.321-8.521Zm-114.6.834c-.378,0-6.861,3.847-14.321,8.443L0,47.11v5.956l13.872,8.671c7.695,4.745,14.178,8.671,14.478,8.671s.9-.684,1.51-1.51c.9-1.432.142-2.038-12.6-10.1C5.13,51.178,3.847,50.124,5.059,49.3c.755-.527,6.484-4.075,12.668-7.916,14.1-8.671,13.345-8.072,12.212-9.882-.449-.748-1.211-1.425-1.66-1.354Zm61.872.164c-2.08-.014-6.555,3.156-19.95,14.093a3.9,3.9,0,0,0-.363,2.935,1.768,1.768,0,0,0,.919.926,4.448,4.448,0,0,0,1.6.392,14.525,14.525,0,0,0,3.819-.313l.784-.178a2.75,2.75,0,0,1,1.026-.841,82.5,82.5,0,0,0,7.766-7.011c6.106-6.184,7.538-8.977,5.052-9.882a1.71,1.71,0,0,0-.641-.121Zm15.646,4.3c-1.831.05-5.13,2.173-10.78,6.683-2.836,2.3-4.631,3.541-5.593,3.8l-3.733,2.95c-1.4,2.565-1.61,4.154-1.24,5.03a1.781,1.781,0,0,0,.983.955,4.588,4.588,0,0,0,1.71.321,15.532,15.532,0,0,0,4.132-.606q1.051-.282,2.073-.655L93.549,53l.378-.2a56.555,56.555,0,0,1,4.4-4.645c6.484-6.256,9.8-10.7,9.12-12.362a1.6,1.6,0,0,0-1.66-1.183ZM88.519,42.3c-.527.057-1.71.969-3.84,2.836-3.078,2.722-6.434,4.289-7.6,3.591q-.4.091-.812.171a15.135,15.135,0,0,1-3.976.321,5.044,5.044,0,0,1-1.8-.449,2.4,2.4,0,0,1-1.2-1.211,3.672,3.672,0,0,1,.036-2.458l-4.631,3.8L54.227,57.576V71.634L88.569,44.581a2.921,2.921,0,0,1,.114-.876c.264-.955.249-1.439-.164-1.4ZM103.3,46.854c-.52,0-1.389.734-2.779,2.209a17.349,17.349,0,0,1-6.434,4.368l-.242.128q-.388.16-.784.3c-.427.142-.983.313-1.624.484a15.785,15.785,0,0,1-4.3.634,5.215,5.215,0,0,1-1.959-.385,2.451,2.451,0,0,1-1.311-1.282c-.413-.99-.249-2.38.655-4.353L54.22,72.817V81.4H67.529L95.758,59.229c.734-.812,1.838-1.924,3.327-3.313,3.99-3.7,4.895-4.973,4.895-6.861,0-1.468-.164-2.209-.684-2.209Zm6.719,13.893L107.6,63.155a20.967,20.967,0,0,1-5.422,3.541l-.328.143-.021.036-.071.071a.484.484,0,0,1-.143.078q-.99.375-2.009.663a21.789,21.789,0,0,1-4.631.819,7.374,7.374,0,0,1-2.209-.192,2.593,2.593,0,0,1-1.553-1.026,2.7,2.7,0,0,1-.249-2.1A7.909,7.909,0,0,1,91.64,63.4l-22.778,18H99.157l3.619-4.147c4.973-5.8,7.239-9.946,7.239-13.494Z" transform="translate(0 -6.762)"/>
</svg>
