<svg xmlns="http://www.w3.org/2000/svg" width="74.65" height="74.65" viewBox="0 0 74.65 74.65">
  <path id="Icon_simple-typescript" data-name="Icon simple-typescript" d="M0,37.325V74.65H74.65V0H0Zm60.159-2.974a9.281,9.281,0,0,1,4.669,2.691,12.067,12.067,0,0,1,1.788,2.4c.025.093-3.222,2.271-5.188,3.493-.072.047-.358-.261-.675-.734a4.234,4.234,0,0,0-3.509-2.109c-2.264-.156-3.72,1.03-3.708,3.008a2.737,2.737,0,0,0,.317,1.4c.5,1.03,1.425,1.649,4.323,2.9,5.347,2.3,7.633,3.816,9.054,5.972a10.835,10.835,0,0,1,.865,9.1c-1.182,3.1-4.121,5.213-8.258,5.91a22.778,22.778,0,0,1-5.686-.056,13.727,13.727,0,0,1-7.6-3.96,13.148,13.148,0,0,1-1.944-2.877,4.917,4.917,0,0,1,.684-.439c.336-.19,1.589-.914,2.774-1.6L50.218,58.2l.451.666A10.029,10.029,0,0,0,53.5,61.58c2.383,1.257,5.652,1.079,7.263-.367a3.238,3.238,0,0,0,.414-4.137c-.579-.827-1.764-1.524-5.129-2.986C52.2,52.432,50.538,51.4,49.02,49.767a9.844,9.844,0,0,1-2.05-3.732,15.014,15.014,0,0,1-.131-4.762c.793-3.723,3.6-6.314,7.655-7.086a18.894,18.894,0,0,1,5.664.165ZM42.634,37.468l.025,3.058h-9.72V68.134H26.065V40.526H16.355v-3a29.833,29.833,0,0,1,.081-3.079c.037-.05,5.95-.075,13.117-.062l13.048.037Z"/>
</svg>
