<svg xmlns="http://www.w3.org/2000/svg" width="74.646" height="72.78" viewBox="0 0 74.646 72.78">
  <path id="Icon_simple-adobexd" data-name="Icon simple-adobexd" d="M61.428.45H13.219A13.208,13.208,0,0,0,0,13.669V60.012A13.208,13.208,0,0,0,13.219,73.23H61.428A13.208,13.208,0,0,0,74.646,60.012V13.669A13.208,13.208,0,0,0,61.428.45ZM71.505,58.8A11.269,11.269,0,0,1,60.246,70.12H14.4A11.309,11.309,0,0,1,3.11,58.83V14.851A11.309,11.309,0,0,1,14.4,3.56H60.215a11.29,11.29,0,0,1,11.29,11.29ZM29.516,34.507l8.709,16.733c.156.249.062.5-.187.5H32.627a.61.61,0,0,1-.653-.4c-1.991-4.106-4.012-8.211-6.1-12.628h-.062c-1.866,4.168-3.919,8.553-5.91,12.659a.6.6,0,0,1-.56.342H14.214c-.311,0-.342-.249-.187-.435l8.522-16.236L14.307,18.614a.251.251,0,0,1,.187-.435h5.35a.49.49,0,0,1,.56.342c1.959,4.106,3.95,8.336,5.816,12.472h.062c1.8-4.106,3.795-8.367,5.723-12.441.156-.249.249-.4.56-.4h5.008c.249,0,.342.187.187.435Zm10.233,5.07c0-7.247,4.821-12.908,12.472-12.908a13.792,13.792,0,0,1,1.617.062V18.49a.312.312,0,0,1,.311-.311h4.914c.249,0,.311.093.311.249V46.98a22.154,22.154,0,0,0,.156,3.048c0,.187-.062.249-.249.342a18.527,18.527,0,0,1-7.962,1.8C44.57,52.2,39.749,48.037,39.749,39.577Zm14.09-7.962a4.7,4.7,0,0,0-1.8-.311c-3.919,0-6.656,3.017-6.656,8.024,0,5.723,2.8,8.024,6.314,8.024a5.868,5.868,0,0,0,2.146-.342v-15.4Z" transform="translate(0 -0.45)"/>
</svg>
