<svg xmlns="http://www.w3.org/2000/svg" width="65.316" height="65.316" viewBox="0 0 65.316 65.316">
  <path id="Icon_awesome-js-square" data-name="Icon awesome-js-square" d="M58.318,2.25H7a7,7,0,0,0-7,7V60.568a7,7,0,0,0,7,7H58.318a7,7,0,0,0,7-7V9.248A7,7,0,0,0,58.318,2.25ZM35.545,53.19c0,6.357-3.732,9.258-9.17,9.258a9.535,9.535,0,0,1-9.214-5.613l5-3.018c.962,1.706,1.837,3.149,3.951,3.149,2.012,0,3.295-.787,3.295-3.864V32.24h6.138Zm14.521,9.258c-5.7,0-9.389-2.712-11.182-6.269l5-2.887c1.312,2.143,3.033,3.732,6.05,3.732,2.537,0,4.17-1.268,4.17-3.033,0-2.1-1.662-2.843-4.476-4.082L48.1,49.254C43.665,47.373,40.735,45,40.735,40c0-4.607,3.514-8.106,8.981-8.106,3.907,0,6.707,1.356,8.718,4.913l-4.782,3.062c-1.05-1.881-2.187-2.624-3.951-2.624a2.664,2.664,0,0,0-2.93,2.624c0,1.837,1.137,2.581,3.776,3.732l1.531.656c5.219,2.231,8.15,4.52,8.15,9.652,0,5.511-4.345,8.544-10.162,8.544Z" transform="translate(0 -2.25)"/>
</svg>
