<svg xmlns="http://www.w3.org/2000/svg" width="65.32" height="65.32" viewBox="0 0 65.32 65.32">
  <path id="Icon_simple-linkedin" data-name="Icon simple-linkedin" d="M55.65,55.664H45.977V40.507c0-3.614-.073-8.266-5.041-8.266-5.043,0-5.813,3.933-5.813,8V55.664H25.45V24.5h9.292v4.249h.125a10.193,10.193,0,0,1,9.172-5.035c9.8,0,11.613,6.45,11.613,14.847V55.664ZM14.526,20.23a5.618,5.618,0,1,1,5.618-5.62A5.612,5.612,0,0,1,14.526,20.23Zm4.85,35.433h-9.7V24.5h9.7ZM60.489,0H4.82A4.762,4.762,0,0,0,0,4.706V60.614A4.76,4.76,0,0,0,4.82,65.32H60.481a4.779,4.779,0,0,0,4.839-4.706V4.706A4.781,4.781,0,0,0,60.481,0Z"/>
</svg>
