<svg id="nestjs-seeklogo.com" xmlns="http://www.w3.org/2000/svg" width="74.944" height="74.65" viewBox="0 0 74.944 74.65">
  <path id="Path_4" data-name="Path 4" d="M44.128,0a4.751,4.751,0,0,0-1.51.271,4.261,4.261,0,0,1,1.8,2.516c.02.135.058.232.078.368a2.136,2.136,0,0,1,.039.348c.078,1.7-.445,1.916-.813,2.922a4.136,4.136,0,0,0,.271,3.813,2.316,2.316,0,0,0,.232.426c-.735-4.9,3.348-5.632,4.1-7.161.058-1.335-1.045-2.226-1.916-2.845A4.276,4.276,0,0,0,44.128,0Zm6.154,1.1a2.248,2.248,0,0,0-.039.561c-.019.155-.019.348-.039.5a4.148,4.148,0,0,1-.136.465,4.361,4.361,0,0,1-.155.465c-.078.155-.136.29-.213.445-.058.077-.1.155-.155.232l-.116.174c-.1.135-.194.271-.29.387a2.964,2.964,0,0,1-.348.348V4.7c-.116.1-.232.213-.368.31-.406.31-.871.542-1.3.832a2.908,2.908,0,0,0-.387.29,2.832,2.832,0,0,0-.368.31,3.134,3.134,0,0,0-.348.368,2.887,2.887,0,0,0-.29.387c-.1.135-.194.271-.271.406-.078.155-.136.29-.213.445A4.057,4.057,0,0,0,45.1,8.5c-.058.174-.1.329-.136.484-.019.077-.019.174-.039.252s-.02.155-.039.232c0,.155-.02.329-.02.484a2.076,2.076,0,0,0,.02.348,2.2,2.2,0,0,0,.058.484,3.97,3.97,0,0,0,.1.465c.058.155.1.31.155.465.039.1.1.194.136.271l-4.452-1.723c-.755-.213-1.49-.406-2.245-.581l-1.219-.29c-1.161-.232-2.342-.406-3.522-.523-.039,0-.058-.019-.1-.019a34.6,34.6,0,0,0-3.464-.174c-.852,0-1.7.039-2.535.1-1.181.077-2.361.232-3.542.426-.29.039-.581.1-.871.155-.6.116-1.181.252-1.742.387l-.871.232c-.29.116-.561.252-.832.368l-.639.29c-.039.019-.077.019-.1.039-.194.1-.368.174-.542.271a.939.939,0,0,0-.135.058c-.213.1-.426.213-.6.31-.135.058-.271.135-.387.194a1.744,1.744,0,0,1-.174.1c-.174.1-.348.194-.5.29a4.87,4.87,0,0,0-.465.29c-.135.1-.271.174-.387.271-.019.019-.039.019-.058.039a4.465,4.465,0,0,0-.368.271l-.039.039-.29.232c-.039.019-.077.058-.116.077-.1.077-.194.174-.29.252-.019.039-.058.058-.077.077-.116.116-.232.213-.348.329-.019,0-.019.019-.039.039-.116.1-.232.213-.348.329-.019.019-.019.039-.039.039-.1.1-.194.194-.29.31-.039.039-.1.077-.135.116-.1.116-.213.232-.329.348-.019.039-.058.058-.077.1-.155.155-.29.31-.445.465l-.058.058a11.424,11.424,0,0,1-.987.948,11,11,0,0,1-1.084.852c-.387.271-.755.5-1.161.735a11.8,11.8,0,0,1-1.219.581c-.406.174-.832.329-1.258.464a21.652,21.652,0,0,1-2.361.561,4.117,4.117,0,0,0-.484.058c-.174.039-.329.077-.484.116l-.465.174a4.95,4.95,0,0,0-.464.213c-.135.1-.29.174-.426.271a3.16,3.16,0,0,0-.387.329,3.31,3.31,0,0,0-.387.348c-.116.135-.232.252-.329.387-.1.155-.213.29-.29.445A3.41,3.41,0,0,0,.6,22.49c-.077.174-.155.329-.213.5-.058.155-.116.329-.174.5a3.962,3.962,0,0,0-.1.464c0,.019-.019.039-.019.058-.039.174-.039.406-.058.523A2.618,2.618,0,0,0,0,24.928a1.1,1.1,0,0,0,.019.252,2.053,2.053,0,0,0,.077.368,2.587,2.587,0,0,0,.135.348v.019a3.364,3.364,0,0,0,.213.348,3.932,3.932,0,0,0,.252.348c.1.1.213.213.329.31a2.83,2.83,0,0,0,.368.31,4.5,4.5,0,0,0,1.181.852c.1.058.194.1.31.155.019,0,.039.019.058.019a.174.174,0,0,0,.019.1,3.971,3.971,0,0,0,.1.465,2.61,2.61,0,0,0,.155.465c.058.116.1.232.155.348a.425.425,0,0,0,.058.1c.077.155.155.29.232.426l.29.406c.1.116.213.252.329.368s.232.213.368.329a.067.067,0,0,0,.039.02,4.256,4.256,0,0,0,.348.271,3.083,3.083,0,0,0,.426.252,3.152,3.152,0,0,0,.445.213,2.28,2.28,0,0,0,.387.136c.019.019.039.019.077.039.077.019.174.039.252.058A7.7,7.7,0,0,0,6.7,34.625c.174.387,1.026-.794,1.877-2.148a11.81,11.81,0,0,0,0,3.368c.213.484,1.374-1.026,2.381-2.69a22.368,22.368,0,0,1,27.561,19.7A3.791,3.791,0,0,0,34.509,49.9a10.1,10.1,0,0,1-3.155,4.413,12.413,12.413,0,0,0-.194-3.871,12.515,12.515,0,0,1-2.4,4.877,5.406,5.406,0,0,1-4.645-2.09c-.077-.058-.1-.174-.155-.251a3.5,3.5,0,0,1-.155-.407,1.606,1.606,0,0,1-.116-.406,3,3,0,0,1-.019-.426v-.29a3.1,3.1,0,0,1,.1-.407,3.351,3.351,0,0,1,.135-.406,4.318,4.318,0,0,1,.232-.406c.329-.929.329-1.684-.271-2.129A2.209,2.209,0,0,0,23.5,47.9c-.077-.019-.174-.058-.252-.077-.058-.02-.1-.039-.155-.058a3.1,3.1,0,0,0-.406-.1,1.476,1.476,0,0,0-.406-.058,3.169,3.169,0,0,0-.426-.039c-.1,0-.194.019-.29.019a1.512,1.512,0,0,0-.426.058,3.01,3.01,0,0,0-.406.077,3.342,3.342,0,0,0-.406.136c-.135.058-.252.116-.387.174-.116.058-.232.136-.368.194-4.51,2.942-1.819,9.832,1.258,11.826a9.665,9.665,0,0,0-2.671.716l-.039.039a18.23,18.23,0,0,0,2.613,1.3c1.239.406,2.555.774,3.135.929v.019a18.718,18.718,0,0,0,4.877.348A18.409,18.409,0,0,0,45.618,47.689c.039.174.078.329.116.5.058.348.136.716.174,1.084v.02c.039.174.058.348.078.5v.078a4.774,4.774,0,0,1,.039.5c.019.213.039.426.039.639v.309c0,.1.019.213.019.31,0,.116-.019.232-.019.348v.271c0,.136-.019.251-.019.387a1.176,1.176,0,0,1-.02.252c0,.135-.019.271-.019.426a.537.537,0,0,0-.019.174c-.019.155-.039.29-.058.445a.537.537,0,0,1-.019.174c-.019.194-.058.368-.077.561v.039c-.039.174-.078.368-.116.542v.058l-.116.523c0,.019-.019.058-.019.077a5.147,5.147,0,0,1-.136.523V56.5c-.058.194-.116.368-.155.542a.059.059,0,0,0-.02.039l-.174.581c-.077.194-.135.368-.213.561s-.136.387-.213.561c-.078.194-.155.368-.232.561h-.02c-.077.174-.155.368-.251.542h0a.931.931,0,0,1-.058.136c-.019.019-.019.039-.039.058a18.32,18.32,0,0,1-5.438,6.5c-.155.1-.31.213-.465.329h0c-.039.039-.1.058-.136.1-.136.1-.271.194-.426.29l.058.116h.019L38.5,67.3h.019c.5-.077,1.006-.174,1.51-.271a3.314,3.314,0,0,0,.426-.1c.1-.019.174-.039.271-.058.136-.019.271-.058.406-.078.116-.039.232-.058.348-.1a36.69,36.69,0,0,0,5.613-1.858A31,31,0,0,1,35.07,74.65a31.842,31.842,0,0,0,6.6-1.142A30.922,30.922,0,0,0,59.96,58.9,30.892,30.892,0,0,1,54.753,71.34,30.416,30.416,0,0,0,68.069,50.592a30.816,30.816,0,0,1,.561,9.329c13.974-19.49,1.161-39.7-4.2-45.018-.02-.039-.039-.058-.039-.1-.02.019-.02.019-.02.039,0-.019,0-.019-.019-.039,0,.232-.019.464-.039.7-.058.445-.116.871-.194,1.3-.1.426-.213.852-.329,1.277-.136.406-.29.832-.465,1.239-.174.387-.368.794-.581,1.181-.213.368-.445.755-.7,1.1-.252.368-.523.716-.794,1.045-.29.348-.6.658-.91.968-.194.174-.368.329-.561.484l-.445.387a10.8,10.8,0,0,1-1.084.755c-.368.232-.755.465-1.142.658-.406.194-.813.368-1.219.542-.406.155-.832.29-1.258.406s-.871.213-1.3.29c-.445.077-.89.116-1.316.155-.31.019-.619.039-.929.039-.445,0-.89-.039-1.316-.077a13.026,13.026,0,0,1-2.613-.523h-.019c.426-.039.852-.077,1.278-.155.445-.077.871-.174,1.3-.29s.852-.252,1.258-.406a11.636,11.636,0,0,0,1.22-.542c.406-.194.774-.406,1.161-.639.368-.252.736-.5,1.084-.774a10.584,10.584,0,0,0,.987-.871,10.54,10.54,0,0,0,.91-.948q.435-.523.813-1.045c.039-.058.078-.135.116-.194.194-.31.387-.619.561-.929.213-.387.407-.774.581-1.181s.329-.813.464-1.239c.136-.406.232-.832.329-1.258.078-.445.155-.871.194-1.3.039-.445.078-.89.078-1.316,0-.31-.019-.619-.039-.929-.039-.445-.1-.871-.155-1.3-.078-.445-.174-.871-.29-1.3-.136-.406-.271-.832-.426-1.239s-.348-.813-.542-1.2c-.213-.387-.426-.774-.658-1.142-.252-.368-.5-.716-.774-1.064-.29-.329-.581-.658-.89-.987-.155-.155-.329-.329-.5-.484-.871-.677-1.781-1.316-2.69-1.9a3.607,3.607,0,0,0-.387-.194A7.539,7.539,0,0,0,50.283,1.1Z"/>
</svg>
