<svg xmlns="http://www.w3.org/2000/svg" width="65.32" height="73.675" viewBox="0 0 65.32 73.675">
  <path id="Icon_awesome-node-js" data-name="Icon awesome-node-js" d="M32.695,73.96a5.726,5.726,0,0,1-2.836-.76l-9.02-5.336c-1.345-.76-.687-1.023-.249-1.17a17.769,17.769,0,0,0,4.079-1.857.66.66,0,0,1,.672.058L32.271,69a.846.846,0,0,0,.833,0l27-15.584a.866.866,0,0,0,.409-.731V21.52a.871.871,0,0,0-.424-.746L33.1,5.2a.846.846,0,0,0-.833,0L5.3,20.789a.853.853,0,0,0-.424.746V52.688A.807.807,0,0,0,5.3,53.4l7.4,4.269c4.02,2,6.476-.351,6.476-2.734V24.18a.774.774,0,0,1,.789-.775h3.421a.783.783,0,0,1,.789.775V54.954c0,5.351-2.924,8.421-8,8.421-1.564,0-2.792,0-6.213-1.7L2.885,57.6A5.685,5.685,0,0,1,.049,52.674V21.52a5.7,5.7,0,0,1,2.836-4.927L29.858,1.008a5.92,5.92,0,0,1,5.672,0l27,15.6a5.685,5.685,0,0,1,2.836,4.927V52.688a5.72,5.72,0,0,1-2.836,4.927l-27,15.584a5.686,5.686,0,0,1-2.836.76Zm21.8-30.716c0-5.833-3.947-7.383-12.237-8.479-8.392-1.111-9.24-1.681-9.24-3.64,0-1.623.716-3.786,6.93-3.786,5.541,0,7.588,1.2,8.435,4.941a.783.783,0,0,0,.76.614H52.65a.763.763,0,0,0,.57-.249.814.814,0,0,0,.2-.6C52.884,25.6,48.6,22.6,39.946,22.6c-7.7,0-12.3,3.246-12.3,8.7,0,5.906,4.576,7.544,11.959,8.275,8.845.863,9.532,2.164,9.532,3.9,0,3.012-2.427,4.3-8.114,4.3-7.149,0-8.713-1.8-9.24-5.351a.774.774,0,0,0-.775-.658H27.519a.771.771,0,0,0-.775.775c0,4.547,2.471,9.971,14.3,9.971,8.538-.015,13.45-3.392,13.45-9.269Z" transform="translate(-0.049 -0.285)"/>
</svg>
