<svg xmlns="http://www.w3.org/2000/svg" width="74.646" height="66.415" viewBox="0 0 74.646 66.415">
  <path id="Icon_simple-react" data-name="Icon simple-react" d="M37.323,28.539a6.653,6.653,0,1,0,6.653,6.653A6.653,6.653,0,0,0,37.323,28.539ZM18.687,48.426l-1.468-.373C6.277,45.288,0,40.594,0,35.179S6.277,25.071,17.218,22.306l1.468-.37.414,1.456A73.185,73.185,0,0,0,23.339,34.52l.314.662-.314.662A72.489,72.489,0,0,0,19.1,46.973ZM16.537,25.705C8.22,28.041,3.116,31.615,3.116,35.179s5.1,7.135,13.421,9.474a77.6,77.6,0,0,1,3.676-9.474,76.984,76.984,0,0,1-3.676-9.474ZM55.96,48.426l-.414-1.459A72.646,72.646,0,0,0,51.3,35.842l-.314-.662.314-.662a72.842,72.842,0,0,0,4.242-11.129l.414-1.456,1.471.37c10.939,2.765,17.215,7.458,17.215,12.877S68.37,45.288,57.431,48.053ZM54.433,35.179a76.906,76.906,0,0,1,3.676,9.474c8.32-2.339,13.421-5.913,13.421-9.474s-5.1-7.135-13.421-9.474a77.1,77.1,0,0,1-3.676,9.474ZM16.516,25.69,16.1,24.237c-3.076-10.842-2.143-18.612,2.56-21.324C23.274.251,30.68,3.4,38.44,11.361L39.5,12.446,38.44,13.532a73.253,73.253,0,0,0-7.533,9.228l-.42.6-.731.062a73.58,73.58,0,0,0-11.772,1.9Zm5.9-20.621a4.34,4.34,0,0,0-2.193.538c-3.092,1.782-3.639,7.978-1.508,16.338a78.136,78.136,0,0,1,10.056-1.558,77.279,77.279,0,0,1,6.382-7.913C30.3,7.75,25.7,5.069,22.413,5.069ZM52.237,68.4h0c-4.432,0-10.124-3.337-16.03-9.4l-1.057-1.085,1.057-1.085a73.184,73.184,0,0,0,7.53-9.231l.42-.6.728-.062a73.5,73.5,0,0,0,11.779-1.894l1.468-.37.417,1.456c3.07,10.836,2.14,18.609-2.563,21.318a7.4,7.4,0,0,1-3.748.958ZM39.5,57.884c4.852,4.724,9.446,7.406,12.737,7.406h0a4.328,4.328,0,0,0,2.19-.538c3.092-1.782,3.642-7.981,1.508-16.341a77.816,77.816,0,0,1-10.059,1.558A76.741,76.741,0,0,1,39.5,57.884ZM58.131,25.69l-1.468-.37a73.025,73.025,0,0,0-11.779-1.9l-.728-.062-.42-.6a72.824,72.824,0,0,0-7.53-9.228l-1.057-1.085,1.057-1.085C43.964,3.4,51.366.254,55.985,2.913c4.7,2.712,5.636,10.482,2.563,21.321Zm-12.254-5.3a77.565,77.565,0,0,1,10.059,1.558c2.134-8.36,1.583-14.556-1.508-16.338-3.073-1.776-8.849.946-14.929,6.867a77.288,77.288,0,0,1,6.379,7.913ZM22.413,68.4a7.4,7.4,0,0,1-3.751-.958c-4.7-2.709-5.636-10.479-2.56-21.318l.411-1.456,1.468.37a73.413,73.413,0,0,0,11.772,1.894l.731.062.417.6a73.391,73.391,0,0,0,7.533,9.231l1.057,1.085L38.434,59c-5.9,6.065-11.6,9.4-16.021,9.4Zm-3.7-19.99c-2.134,8.36-1.583,14.559,1.508,16.341,3.07,1.751,8.842-.949,14.929-6.867a77.75,77.75,0,0,1-6.382-7.916A77.682,77.682,0,0,1,18.711,48.41Zm18.612,1.953c-2.56,0-5.191-.112-7.825-.33l-.731-.062-.42-.6q-2.235-3.212-4.2-6.6t-3.627-6.93l-.311-.663.311-.662q1.669-3.539,3.627-6.93c1.288-2.227,2.7-4.448,4.2-6.6l.42-.6.731-.062a92.639,92.639,0,0,1,15.654,0l.728.062.417.6a93.327,93.327,0,0,1,7.829,13.53l.314.662-.314.662A92.064,92.064,0,0,1,46.3,49.371l-.417.6-.728.062C42.517,50.252,39.883,50.364,37.323,50.364ZM30.49,46.992a90.336,90.336,0,0,0,13.67,0,90.217,90.217,0,0,0,6.83-11.813,88.908,88.908,0,0,0-6.833-11.813,90.3,90.3,0,0,0-13.667,0,88.572,88.572,0,0,0-6.833,11.813A90.553,90.553,0,0,0,30.49,46.992Z" transform="translate(0 -1.986)"/>
</svg>
