<svg xmlns="http://www.w3.org/2000/svg" width="137.076" height="74.64" viewBox="0 0 137.076 74.64">
  <path id="reactrouter" d="M69.212,5.466a13.171,13.171,0,0,0-3.558.457,14.042,14.042,0,0,0-5.443,3.33c-2.342,2.416-2.8,3.478-3.781,8.39-.457,2.416,2.342,8.167,4.838,9.9,2.57,1.811,6.2,2.867,11.794,3.473,8.162.914,10.509,3.632,10.509,12.548,0,7.865-2.2,9.978-11.194,10.886-9.749.982-14.735,4.763-15.792,12.091-.605,4.461,2.342,10.052,6.425,11.943C72.3,82.873,81,77.356,82.811,65.945c1.205-7.333,3.553-9.378,11.411-9.978,9.07-.76,13.759-3.855,15.5-10.206a12.552,12.552,0,0,0-7.408-14.587,37.227,37.227,0,0,0-7.71-1.662c-8.539-.914-10.732-2.422-11.64-7.939-1.285-7.636-1.811-8.921-4.535-11.937a12.417,12.417,0,0,0-9.213-4.169Zm-27.329,24.9a12.251,12.251,0,0,0-2.839.274,12.42,12.42,0,0,0-7.71,18.819c6.728,10.132,22.526,5.443,22.674-6.722A12.414,12.414,0,0,0,41.883,30.368ZM11.932,55.293a12.68,12.68,0,0,0-2.439.3C-2.832,58.309-3.283,76.3,8.888,79.475c3.027.828,3.324.828,6.345.074A12.01,12.01,0,0,0,24.08,64.66a12.266,12.266,0,0,0-12.148-9.367Zm113.223.046a14.352,14.352,0,0,0-4.478.925c-7.939,2.724-10.658,11.948-5.6,19.053,3.181,4.535,11.194,6.043,16.106,2.947,8.087-4.992,7.785-17.46-.531-21.4A11.909,11.909,0,0,0,125.155,55.339Z" transform="translate(0 -5.466)"/>
</svg>
