<svg xmlns="http://www.w3.org/2000/svg" width="59.893" height="74.64" viewBox="0 0 59.893 74.64">
  <path id="storybook" d="M46.965.755l-.373,8.428a.56.56,0,0,0,.9.466l3.3-2.488,2.8,2.177A.56.56,0,0,0,54.46,8.9L54.149.319,58.286.008A3.732,3.732,0,0,1,62.263,3.74V70.9a3.732,3.732,0,0,1-3.919,3.732L8.287,72.4A3.732,3.732,0,0,1,4.71,68.789L2.378,7.221a3.732,3.732,0,0,1,3.514-3.95L46.934.69ZM37.418,28.922c0,1.462,9.828.746,11.165-.249,0-9.952-5.349-15.208-15.111-15.208-9.8,0-15.236,5.349-15.236,13.342,0,13.839,18.657,14.088,18.657,21.642,0,2.177-1,3.421-3.265,3.421-2.986,0-4.2-1.524-4.043-6.718,0-1.12-11.348-1.493-11.722,0C17.022,57.686,24.8,61.325,33.72,61.325c8.677,0,15.454-4.634,15.454-13,0-14.835-18.968-14.43-18.968-21.767,0-3.017,2.239-3.421,3.514-3.421,1.4,0,3.887.218,3.7,5.816Z" transform="translate(-2.371 0)"/>
</svg>
